{"asset":{"version":"2.0","generator":"Blockbench 4.12.5 glTF exporter"},"scenes":[{"nodes":[3],"name":"blockbench_export"}],"scene":0,"nodes":[{"translation":[-0.04907,0.146578125,0.012345],"name":"cylinder","mesh":0},{"translation":[-0.04907,0.146578125,0.012345],"name":"cuboid","mesh":1},{"translation":[0.04907,1.288948125,-0.012345],"name":"LEDS","children":[0,1]},{"children":[2]}],"bufferViews":[{"buffer":0,"byteOffset":0,"byteLength":2592,"target":34962,"byteStride":12},{"buffer":0,"byteOffset":2592,"byteLength":2592,"target":34962,"byteStride":12},{"buffer":0,"byteOffset":5184,"byteLength":1728,"target":34962,"byteStride":8},{"buffer":0,"byteOffset":6912,"byteLength":528,"target":34963},{"buffer":0,"byteOffset":7440,"byteLength":576,"target":34962,"byteStride":12},{"buffer":0,"byteOffset":8016,"byteLength":576,"target":34962,"byteStride":12},{"buffer":0,"byteOffset":8592,"byteLength":384,"target":34962,"byteStride":8},{"buffer":0,"byteOffset":8976,"byteLength":144,"target":34963}],"buffers":[{"byteLength":9120,"uri":"data:application/octet-stream;base64,"}],"accessors":[{"bufferView":0,"componentType":5126,"count":216,"max":[0.5625,1.0332237482070923,0.5625],"min":[-0.5625,-0.3730262517929077,-0.5625],"type":"VEC3"},{"bufferView":1,"componentType":5126,"count":216,"max":[1,1,1],"min":[-1,-1,-1],"type":"VEC3"},{"bufferView":2,"componentType":5126,"count":216,"max":[1.9365384578704834,1.8428694009780884],"min":[0.0004740624863188714,0.000274658203125],"type":"VEC2"},{"bufferView":3,"componentType":5123,"count":264,"max":[215],"min":[0],"type":"SCALAR"},{"bufferView":4,"componentType":5126,"count":48,"max":[0.11660999804735184,-0.3730262517929077,0.306573748588562],"min":[-0.11660999804735184,-1.1230262517929077,-0.306573748588562],"type":"VEC3"},{"bufferView":5,"componentType":5126,"count":48,"max":[1,1,1],"min":[-1,-1,-1],"type":"VEC3"},{"bufferView":6,"componentType":5126,"count":48,"max":[0.53125,0.65625],"min":[0,0],"type":"VEC2"},{"bufferView":7,"componentType":5123,"count":72,"max":[47],"min":[0],"type":"SCALAR"}],"materials":[{"pbrMetallicRoughness":{"metallicFactor":0,"roughnessFactor":1},"alphaMode":"MASK","alphaCutoff":0.05,"doubleSided":true},{"pbrMetallicRoughness":{"metallicFactor":0,"roughnessFactor":1,"baseColorTexture":{"index":0}},"alphaMode":"MASK","alphaCutoff":0.05,"doubleSided":true}],"meshes":[{"primitives":[{"mode":4,"attributes":{"POSITION":0,"NORMAL":1,"TEXCOORD_0":2},"indices":3,"material":0}]},{"primitives":[{"mode":4,"attributes":{"POSITION":4,"NORMAL":5,"TEXCOORD_0":6},"indices":7,"material":1}]}],"textures":[{"sampler":0,"source":0,"name":"texture"}],"samplers":[{"magFilter":9728,"minFilter":9728,"wrapS":33071,"wrapT":33071}],"images":[{"mimeType":"image/png","uri":"data:image/png;base64,"}]}