# Made in Blockbench 5.0.4
mtllib neopixel_strip_1.mtl

o base
v 0.09375 0.009375 0.0625
v 0.09375 0.009375 -0.0625
v 0.09375 -0.009375 0.0625
v 0.09375 -0.009375 -0.0625
v -0.09375 0.009375 0.0625
v -0.09375 0.009375 -0.0625
v -0.09375 -0.009375 0.0625
v -0.09375 -0.009375 -0.0625
vt 0.08823529411764706 0.7441860465116279
vt 0.029411764705882353 0.7441860465116279
vt 0.029411764705882353 0.7209302325581395
vt 0.08823529411764706 0.7209302325581395
vt 0.17647058823529413 0.7209302325581395
vt 0.17647058823529413 0.7441860465116279
vt 0.11764705882352941 0.7441860465116279
vt 0.11764705882352941 0.7209302325581395
vt 0.029411764705882353 0.9302325581395349
vt 0.5294117647058824 0.9302325581395349
vt 0.5294117647058824 0.9767441860465116
vt 0.029411764705882353 0.9767441860465116
vt 0.5294117647058824 0.8604651162790697
vt 0.5294117647058824 0.9069767441860466
vt 0.029411764705882353 0.9069767441860466
vt 0.029411764705882353 0.8604651162790697
vt 0.5294117647058824 0.813953488372093
vt 0.5294117647058824 0.8372093023255813
vt 0.029411764705882353 0.8372093023255813
vt 0.029411764705882353 0.813953488372093
vt 0.5294117647058824 0.7906976744186046
vt 0.029411764705882353 0.7906976744186046
vt 0.029411764705882353 0.7674418604651163
vt 0.5294117647058824 0.7674418604651163
vn 1 0 0
vn -1 0 0
vn 0 1 0
vn 0 -1 0
vn 0 0 1
vn 0 0 -1
usemtl m_1e89e71d-c74e-666b-9a6b-61a53c407df4
f 2/1/1 1/2/1 3/3/1 4/4/1
f 7/5/2 5/6/2 6/7/2 8/8/2
f 5/9/3 1/10/3 2/11/3 6/12/3
f 4/13/4 3/14/4 7/15/4 8/16/4
f 3/17/5 1/18/5 5/19/5 7/20/5
f 6/21/6 2/22/6 4/23/6 8/24/6
o neopixel_0
v 0.046875 0.034375 0.046875
v 0.046875 0.034375 -0.046875
v 0.046875 0.015625 0.046875
v 0.046875 0.015625 -0.046875
v -0.046875 0.034375 0.046875
v -0.046875 0.034375 -0.046875
v -0.046875 0.015625 0.046875
v -0.046875 0.015625 -0.046875
vt 0.17647058823529413 0.2093023255813954
vt 0.11764705882352941 0.2093023255813954
vt 0.11764705882352941 0.18604651162790697
vt 0.17647058823529413 0.18604651162790697
vt 0.17647058823529413 0.13953488372093026
vt 0.17647058823529413 0.16279069767441856
vt 0.11764705882352941 0.16279069767441856
vt 0.11764705882352941 0.13953488372093026
vt 0.029411764705882353 0.16279069767441856
vt 0.08823529411764706 0.16279069767441856
vt 0.08823529411764706 0.2093023255813954
vt 0.029411764705882353 0.2093023255813954
vt 0.08823529411764706 0.09302325581395354
vt 0.08823529411764706 0.13953488372093026
vt 0.029411764705882353 0.13953488372093026
vt 0.029411764705882353 0.09302325581395354
vt 0.17647058823529413 0.09302325581395354
vt 0.17647058823529413 0.11627906976744184
vt 0.11764705882352941 0.11627906976744184
vt 0.11764705882352941 0.09302325581395354
vt 0.08823529411764706 0.06976744186046513
vt 0.029411764705882353 0.06976744186046513
vt 0.029411764705882353 0.046511627906976716
vt 0.08823529411764706 0.046511627906976716
vn 1 0 0
vn -1 0 0
vn 0 1 0
vn 0 -1 0
vn 0 0 1
vn 0 0 -1
usemtl m_1e89e71d-c74e-666b-9a6b-61a53c407df4
f 10/25/7 9/26/7 11/27/7 12/28/7
f 15/29/8 13/30/8 14/31/8 16/32/8
f 13/33/9 9/34/9 10/35/9 14/36/9
f 12/37/10 11/38/10 15/39/10 16/40/10
f 11/41/11 9/42/11 13/43/11 15/44/11
f 14/45/12 10/46/12 12/47/12 16/48/12