# Made in Blockbench 5.0.4
mtllib neopixel.mtl

o neopixel_0
v 0.046875 0.021875000000000006 0.046875
v 0.046875 0.021875000000000006 -0.046875
v 0.046875 0.0031250000000000062 0.046875
v 0.046875 0.0031250000000000062 -0.046875
v -0.046875 0.021875000000000006 0.046875
v -0.046875 0.021875000000000006 -0.046875
v -0.046875 0.0031250000000000062 0.046875
v -0.046875 0.0031250000000000062 -0.046875
vt 0.75 -3.25
vt 0.5 -3.25
vt 0.5 -3.375
vt 0.75 -3.375
vt 0.75 -3.625
vt 0.75 -3.5
vt 0.5 -3.5
vt 0.5 -3.625
vt 0.125 -3.5
vt 0.375 -3.5
vt 0.375 -3.25
vt 0.125 -3.25
vt 0.375 -3.875
vt 0.375 -3.625
vt 0.125 -3.625
vt 0.125 -3.875
vt 0.75 -3.875
vt 0.75 -3.75
vt 0.5 -3.75
vt 0.5 -3.875
vt 0.375 -4
vt 0.125 -4
vt 0.125 -4.125
vt 0.375 -4.125
vn 1 0 0
vn -1 0 0
vn 0 1 0
vn 0 -1 0
vn 0 0 1
vn 0 0 -1
usemtl none
f 2/1/1 1/2/1 3/3/1 4/4/1
f 7/5/2 5/6/2 6/7/2 8/8/2
f 5/9/3 1/10/3 2/11/3 6/12/3
f 4/13/4 3/14/4 7/15/4 8/16/4
f 3/17/5 1/18/5 5/19/5 7/20/5
f 6/21/6 2/22/6 4/23/6 8/24/6