# Made in Blockbench 5.0.4
mtllib neopixel_strip_2.mtl

o base
v 0.09375 0.009375 0.0625
v 0.09375 0.009375 -0.0625
v 0.09375 -0.009375 0.0625
v 0.09375 -0.009375 -0.0625
v -0.09375 0.009375 0.0625
v -0.09375 0.009375 -0.0625
v -0.09375 -0.009375 0.0625
v -0.09375 -0.009375 -0.0625
vt 0.08823529411764706 0.7441860465116279
vt 0.029411764705882353 0.7441860465116279
vt 0.029411764705882353 0.7209302325581395
vt 0.08823529411764706 0.7209302325581395
vt 0.17647058823529413 0.7209302325581395
vt 0.17647058823529413 0.7441860465116279
vt 0.11764705882352941 0.7441860465116279
vt 0.11764705882352941 0.7209302325581395
vt 0.029411764705882353 0.9302325581395349
vt 0.5294117647058824 0.9302325581395349
vt 0.5294117647058824 0.9767441860465116
vt 0.029411764705882353 0.9767441860465116
vt 0.5294117647058824 0.8604651162790697
vt 0.5294117647058824 0.9069767441860466
vt 0.029411764705882353 0.9069767441860466
vt 0.029411764705882353 0.8604651162790697
vt 0.5294117647058824 0.813953488372093
vt 0.5294117647058824 0.8372093023255813
vt 0.029411764705882353 0.8372093023255813
vt 0.029411764705882353 0.813953488372093
vt 0.5294117647058824 0.7906976744186046
vt 0.029411764705882353 0.7906976744186046
vt 0.029411764705882353 0.7674418604651163
vt 0.5294117647058824 0.7674418604651163
vn 1 0 0
vn -1 0 0
vn 0 1 0
vn 0 -1 0
vn 0 0 1
vn 0 0 -1
usemtl m_1e89e71d-c74e-666b-9a6b-61a53c407df4
f 2/1/1 1/2/1 3/3/1 4/4/1
f 7/5/2 5/6/2 6/7/2 8/8/2
f 5/9/3 1/10/3 2/11/3 6/12/3
f 4/13/4 3/14/4 7/15/4 8/16/4
f 3/17/5 1/18/5 5/19/5 7/20/5
f 6/21/6 2/22/6 4/23/6 8/24/6